<?xml version="1.0" encoding="UTF-8" standalone="no"?>
<!-- Created with Inkscape (http://www.inkscape.org/) -->

<svg
   xmlns:dc="http://purl.org/dc/elements/1.1/"
   xmlns:cc="http://creativecommons.org/ns#"
   xmlns:rdf="http://www.w3.org/1999/02/22-rdf-syntax-ns#"
   xmlns:svg="http://www.w3.org/2000/svg"
   xmlns="http://www.w3.org/2000/svg"
   xmlns:sodipodi="http://sodipodi.sourceforge.net/DTD/sodipodi-0.dtd"
   xmlns:inkscape="http://www.inkscape.org/namespaces/inkscape"
   width="720"
   height="1280"
   viewBox="0 0 675.00005 1200.0001"
   id="svg2"
   version="1.1"
   inkscape:version="0.92.1 r15371"
   sodipodi:docname="drawable-port-xhdpi-screen.svg">
  <defs
     id="defs4" />
  <sodipodi:namedview
     id="base"
     pagecolor="#3b4b5c"
     bordercolor="#666666"
     borderopacity="1.0"
     inkscape:pageopacity="1"
     inkscape:pageshadow="2"
     inkscape:zoom="0.49497475"
     inkscape:cx="-47.596367"
     inkscape:cy="683.91129"
     inkscape:document-units="px"
     inkscape:current-layer="g3344"
     showgrid="false"
     fit-margin-top="0"
     fit-margin-left="0"
     fit-margin-right="0"
     fit-margin-bottom="0"
     inkscape:window-width="1600"
     inkscape:window-height="837"
     inkscape:window-x="-8"
     inkscape:window-y="-8"
     inkscape:window-maximized="1"
     units="px" />
  <metadata
     id="metadata7">
    <rdf:RDF>
      <cc:Work
         rdf:about="">
        <dc:format>image/svg+xml</dc:format>
        <dc:type
           rdf:resource="http://purl.org/dc/dcmitype/StillImage" />
        <dc:title></dc:title>
      </cc:Work>
    </rdf:RDF>
  </metadata>
  <g
     inkscape:label="Layer 1"
     inkscape:groupmode="layer"
     id="layer1"
     transform="translate(-257.06758,812.72026)">
    <g
       transform="matrix(1.25,0,0,-1.25,913.07643,1038.2293)"
       inkscape:label="ink_ext_XXXXXX"
       id="g3344">
      <g
         transform="matrix(0.22796405,0,0,0.22796405,-546.17824,896.46471)"
         id="g3346">
        <path
           inkscape:connector-curvature="0"
           id="path3350"
           style="fill:#a6daff;fill-opacity:1;fill-rule:nonzero;stroke:none"
           d="m 507.449,258.125 c 0,3.145 -0.406,6.23 -1.211,9.141 -0.933,3.476 -2.383,6.914 -3.925,10.175 -8.083,17.325 -24.2,38.321 -48.473,62.754 -1.66,1.7 -3.613,3.516 -5.527,5.313 -16.641,-50.313 -12.661,-89.903 18.179,-109.766 9.145,-5.879 25.371,-6.836 33.149,0.391 0.156,0.156 0.254,0.254 0.254,0.254 4.722,5.957 7.554,13.535 7.554,21.738" />
        <path
           inkscape:connector-curvature="0"
           id="path3352"
           style="fill:#5397db;fill-opacity:1;fill-rule:nonzero;stroke:none"
           d="m 376.57,403.047 c 6.797,42.539 24.575,94.062 58.535,155.996 -76.835,71.289 -150.82,131.23 -150.82,131.23 0,0 -25.152,-108.164 -23.726,-206.66 v -0.019 c 0,-0.02 0,-0.02 0,-0.02 40.156,-26.797 80.195,-54.297 114.39,-79.336 0.547,-0.39 1.074,-0.8 1.621,-1.191" />
        <path
           inkscape:connector-curvature="0"
           id="path3354"
           style="fill:#1a75cf;fill-opacity:1;fill-rule:nonzero;stroke:none"
           d="m 486.34,227.578 c -0.293,-0.098 -0.586,-0.195 -0.902,-0.273 -0.583,-0.137 -1.168,-0.274 -1.778,-0.391 -0.367,-0.059 -0.722,-0.156 -1.094,-0.195 -0.64,-0.117 -1.304,-0.156 -1.992,-0.215 -0.332,-0.039 -0.679,-0.078 -1.031,-0.117 -1.035,-0.059 -2.109,-0.078 -3.227,-0.078 -36.406,0 -120.742,45.156 -99.746,176.738 -0.547,0.391 -1.074,0.801 -1.621,1.191 -34.195,25.039 -74.234,52.539 -114.39,79.336 0.586,-40.918 5.742,-80.176 19.214,-109.316 34.512,-74.551 91.235,-124.278 161.04,-144.531 9.863,-2.715 20.332,-5.137 30.332,-4.981 5.933,0.098 11.699,1.094 17.07,3.438 -0.61,-0.215 -1.235,-0.411 -1.875,-0.606" />
        <path
           inkscape:connector-curvature="0"
           id="path3356"
           style="fill:#75d9e6;fill-opacity:1;fill-rule:nonzero;stroke:none"
           d="m 448.27,345.547 c 0.023,-0.02 0.023,-0.02 0.043,-0.039 0,0.019 0,0.019 0,0.039 12.734,34.57 48.589,88.144 79.667,121.504 -27.968,30.273 -60.644,62.109 -92.875,91.992 -33.96,-61.934 -51.738,-113.457 -58.535,-155.996 29.868,-21.914 55.039,-41.797 71.7,-57.5" />
        <path
           inkscape:connector-curvature="0"
           id="path3358"
           style="fill:#00b0c7;fill-opacity:1;fill-rule:nonzero;stroke:none"
           d="m 466.492,235.742 c -30.84,19.863 -34.82,59.453 -18.179,109.766 -0.02,0.019 -0.02,0.019 -0.043,0.039 -16.661,15.703 -41.832,35.586 -71.7,57.5 -20.996,-131.582 63.34,-176.738 99.746,-176.738 1.118,0 2.192,0.019 3.227,0.078 0.352,0.039 0.699,0.078 1.031,0.117 0.688,0.059 1.352,0.098 1.992,0.215 0.372,0.039 0.727,0.136 1.094,0.195 0.61,0.117 1.195,0.254 1.778,0.391 0.316,0.078 0.609,0.175 0.902,0.273 0.64,0.195 1.265,0.391 1.875,0.606 0.015,0.019 0.055,0.019 0.078,0.058 0.113,0.02 0.215,0.078 0.328,0.117 2.817,1.27 5.356,2.618 7.817,4.668 1.128,0.918 2.656,2.5 3.203,3.106 -7.778,-7.227 -24.004,-6.27 -33.149,-0.391" />
        <path
           inkscape:connector-curvature="0"
           id="path3360"
           style="fill:#a6daff;fill-opacity:1;fill-rule:nonzero;stroke:none"
           d="m 548.508,258.125 c 0,3.145 0.41,6.23 1.211,9.141 0.918,3.476 2.383,6.914 3.926,10.175 8.066,17.325 24.199,38.321 48.472,62.754 1.66,1.7 3.613,3.516 5.528,5.313 16.64,-50.313 12.66,-89.903 -18.18,-109.766 -9.145,-5.879 -25.395,-6.836 -33.164,0.391 -0.141,0.156 -0.238,0.254 -0.238,0.254 -4.723,5.957 -7.555,13.535 -7.555,21.738" />
        <path
           inkscape:connector-curvature="0"
           id="path3362"
           style="fill:#5397db;fill-opacity:1;fill-rule:nonzero;stroke:none"
           d="m 679.387,403.047 c -6.797,42.539 -24.59,94.062 -58.535,155.996 76.816,71.289 150.82,131.23 150.82,131.23 0,0 25.152,-108.164 23.726,-206.66 v -0.019 c 0,-0.02 0,-0.02 0,-0.02 -40.156,-26.797 -80.195,-54.297 -114.39,-79.336 -0.547,-0.39 -1.074,-0.8 -1.621,-1.191" />
        <path
           inkscape:connector-curvature="0"
           id="path3364"
           style="fill:#1a75cf;fill-opacity:1;fill-rule:nonzero;stroke:none"
           d="m 569.617,227.578 c 0.293,-0.098 0.586,-0.195 0.903,-0.273 0.585,-0.137 1.168,-0.274 1.777,-0.391 0.371,-0.059 0.723,-0.156 1.094,-0.195 0.64,-0.117 1.328,-0.156 1.968,-0.215 0.371,-0.039 0.704,-0.078 1.059,-0.117 1.031,-0.059 2.105,-0.078 3.223,-0.078 36.406,0 120.742,45.156 99.746,176.738 0.547,0.391 1.074,0.801 1.621,1.191 34.195,25.039 74.234,52.539 114.39,79.336 -0.585,-40.918 -5.742,-80.176 -19.214,-109.316 -34.512,-74.551 -91.235,-124.278 -161.055,-144.531 -9.848,-2.715 -20.316,-5.137 -30.316,-4.981 -5.934,0.098 -11.7,1.094 -17.071,3.438 0.61,-0.215 1.235,-0.411 1.875,-0.606" />
        <path
           inkscape:connector-curvature="0"
           id="path3366"
           style="fill:#75d9e6;fill-opacity:1;fill-rule:nonzero;stroke:none"
           d="m 607.688,345.547 c -0.02,-0.02 -0.02,-0.02 -0.043,-0.039 0,0.019 0,0.019 0,0.039 -12.735,34.57 -48.614,88.144 -79.665,121.504 27.965,30.273 60.641,62.109 92.872,91.992 33.945,-61.934 51.738,-113.457 58.535,-155.996 -29.867,-21.914 -55.039,-41.797 -71.699,-57.5" />
        <path
           inkscape:connector-curvature="0"
           id="path3368"
           style="fill:#00b0c7;fill-opacity:1;fill-rule:nonzero;stroke:none"
           d="m 589.465,235.742 c 30.84,19.863 34.82,59.453 18.18,109.766 0.023,0.019 0.023,0.019 0.043,0.039 16.66,15.703 41.832,35.586 71.699,57.5 20.996,-131.582 -63.34,-176.738 -99.746,-176.738 -1.118,0 -2.192,0.019 -3.223,0.078 -0.355,0.039 -0.688,0.078 -1.059,0.117 -0.64,0.059 -1.328,0.098 -1.968,0.215 -0.371,0.039 -0.723,0.136 -1.094,0.195 -0.609,0.117 -1.192,0.254 -1.777,0.391 -0.317,0.078 -0.61,0.175 -0.903,0.273 -0.64,0.195 -1.265,0.391 -1.875,0.606 -0.039,0.019 -0.054,0.019 -0.074,0.058 -0.117,0.02 -0.219,0.078 -0.332,0.117 -2.816,1.27 -5.356,2.618 -7.816,4.668 -1.129,0.918 -2.657,2.5 -3.219,3.106 7.769,-7.227 24.019,-6.27 33.164,-0.391" />
        <path
           inkscape:connector-curvature="0"
           id="path3370"
           style="fill:#ffffff;fill-opacity:1;fill-rule:nonzero;stroke:none"
           d="M 1059.78,524.375 V 346.66 H 932.945 c 12.453,16.36 19.844,49.922 19.844,90.52 v 87.195 z m 11.62,10.469 H 941.188 v -85.379 c 0,-62.336 -7.872,-84.356 -21.645,-102.805 h -16.945 v -46.457 h 11.328 v 35.707 h 166.434 v -35.707 h 11.03 v 46.457 h -19.99 v 188.184" />
        <path
           inkscape:connector-curvature="0"
           id="path3372"
           style="fill:#ffffff;fill-opacity:1;fill-rule:nonzero;stroke:none"
           d="m 1315.08,487.832 -14.03,-0.293 -78.97,-83.73 v 84.023 h -10.47 v -84.023 l -79.63,84.023 h -13.36 l 54.17,-56.758 -62.95,-95.398 h 12.04 l 58.52,87.429 31.21,-32.226 0.06,-55.203 h 10.47 l -0.31,54.558 31.48,32.871 57.92,-87.429 h 12.65 l -62.96,95.398 54.16,56.758" />
        <path
           inkscape:connector-curvature="0"
           id="path3374"
           style="fill:#ffffff;fill-opacity:1;fill-rule:nonzero;stroke:none"
           d="m 1344.93,420.383 c 2.52,37.48 23.32,60.691 54.45,60.691 29.94,0 50.14,-24.344 50.5,-60.691 z m 52.74,70.887 c -39.73,0 -64.4,-30.497 -64.4,-79.54 0,-49.042 24.67,-79.531 64.4,-79.531 30.35,0 54.24,19.141 60.91,48.758 l 0.28,1.133 h -10.76 l -0.18,-0.684 c -6.66,-24.082 -25.9,-39.011 -50.25,-39.011 -31.76,0 -53.07,26.707 -53.07,66.492 v 1.328 h 116.87 v 6.379 c 0,46.758 -23.85,74.676 -63.8,74.676" />
        <path
           inkscape:connector-curvature="0"
           id="path3376"
           style="fill:#ffffff;fill-opacity:1;fill-rule:nonzero;stroke:none"
           d="m 1466.63,477.668 h 61.46 V 335.91 h 11.04 v 141.758 h 61.44 v 10.164 h -133.94 v -10.164" />
        <path
           inkscape:connector-curvature="0"
           id="path3378"
           style="fill:#ffffff;fill-opacity:1;fill-rule:nonzero;stroke:none"
           d="m 1680.81,335.91 h 11.58 v 188.758 h 129.3 V 335.91 h 11.87 V 535.137 H 1680.81 V 335.91" />
        <path
           inkscape:connector-curvature="0"
           id="path3380"
           style="fill:#ffffff;fill-opacity:1;fill-rule:nonzero;stroke:none"
           d="m 1927.24,342.395 c -34.34,0 -55.65,26.55 -55.65,69.335 0,42.793 21.31,69.344 55.65,69.344 34.47,0 55.91,-26.551 55.91,-69.344 0,-42.785 -21.44,-69.335 -55.91,-69.335 z m 0,148.875 c -41.14,0 -66.68,-30.497 -66.68,-79.54 0,-49.042 25.54,-79.531 66.68,-79.531 41.29,0 66.95,30.489 66.95,79.531 0,49.043 -25.66,79.54 -66.95,79.54" />
        <path
           inkscape:connector-curvature="0"
           id="path3382"
           style="fill:#ffffff;fill-opacity:1;fill-rule:nonzero;stroke:none"
           d="m 2086.88,342.395 c -34.29,0 -55.62,26.55 -55.62,69.335 0,42.793 21.33,69.344 55.62,69.344 34.5,0 55.94,-26.551 55.94,-69.344 0,-42.785 -21.44,-69.335 -55.94,-69.335 z m 0,148.875 c -26.29,0 -45.44,-11.727 -55.62,-33.993 v 30.555 h -11.04 V 300.203 h 11.04 v 64.934 c 10.04,-21.278 29.6,-32.938 55.62,-32.938 41.31,0 66.98,30.489 66.98,79.531 0,49.043 -25.67,79.54 -66.98,79.54" />
        <path
           inkscape:connector-curvature="0"
           id="path3384"
           style="fill:#ffffff;fill-opacity:1;fill-rule:nonzero;stroke:none"
           d="m 2161.87,487.832 v -10.164 h 61.45 V 335.91 h 11.03 v 141.758 h 61.44 v 10.164 h -133.92" />
        <path
           inkscape:connector-curvature="0"
           id="path3386"
           style="fill:#ffffff;fill-opacity:1;fill-rule:nonzero;stroke:none"
           d="m 1073.62,243.078 h 12.95 l -6.48,16.942 z m 8.36,19.539 12.67,-32.254 h -3.21 l -3.81,10.125 h -15.07 l -3.9,-10.125 h -3.21 l 12.99,32.254 h 3.54" />
        <path
           inkscape:connector-curvature="0"
           id="path3388"
           style="fill:#ffffff;fill-opacity:1;fill-rule:nonzero;stroke:none"
           d="m 1138.04,263.469 c 8.77,0 15.38,-4.66 15.38,-16.985 0,-9.14 -4.04,-16.972 -14.24,-16.972 -8.86,0 -12.85,5.234 -14.33,11.465 h 3.27 c 1.24,-5.106 4.78,-8.875 10.47,-8.875 8.67,0 11.71,6.679 11.71,14.07 h -14.14 v 2.598 h 14.14 c -0.92,6.632 -4.09,12.101 -11.43,12.101 -5.66,0 -9.15,-2.101 -10.43,-7.617 h -3.22 c 1.06,6.68 6.03,10.215 12.82,10.215" />
        <path
           inkscape:connector-curvature="0"
           id="path3390"
           style="fill:#ffffff;fill-opacity:1;fill-rule:nonzero;stroke:none"
           d="m 1190.24,247.207 h 6.89 c 5.88,0 9.74,0.988 9.74,6.32 0,5.594 -3.22,6.493 -10.11,6.493 h -6.52 z m 0,-16.844 h -3.12 v 32.254 h 11.85 c 8.59,0 11.02,-4.168 11.02,-9.004 0,-7.215 -5.83,-9.004 -11.94,-9.004 h -7.81 v -14.246" />
        <path
           inkscape:connector-curvature="0"
           id="path3392"
           style="fill:#ffffff;fill-opacity:1;fill-rule:nonzero;stroke:none"
           d="m 1270.09,246.438 c 0,8.964 -4.73,14.433 -12.35,14.433 -8.49,0 -12.22,-6.945 -12.22,-14.433 0,-7.618 3.68,-14.336 12.31,-14.336 8.59,0 12.26,6.816 12.26,14.336 z m -12.44,17.031 c 10.33,0 15.56,-7.571 15.56,-17.031 0,-9.27 -5.23,-16.926 -15.43,-16.926 -10.19,0 -15.38,7.656 -15.38,16.926 0,9.375 5.37,17.031 15.25,17.031" />
        <path
           inkscape:connector-curvature="0"
           id="path3394"
           style="fill:#ffffff;fill-opacity:1;fill-rule:nonzero;stroke:none"
           d="m 1332.72,262.617 v -32.254 h -3.12 v 29.657 h -19.57 v -29.657 h -3.13 v 32.254 h 25.82" />
        <path
           inkscape:connector-curvature="0"
           id="path3396"
           style="fill:#ffffff;fill-opacity:1;fill-rule:nonzero;stroke:none"
           d="m 1394.09,246.438 c 0,8.964 -4.72,14.433 -12.34,14.433 -8.49,0 -12.21,-6.945 -12.21,-14.433 0,-7.618 3.67,-14.336 12.31,-14.336 8.58,0 12.24,6.816 12.24,14.336 z m -12.44,17.031 c 10.35,0 15.57,-7.571 15.57,-17.031 0,-9.27 -5.22,-16.926 -15.42,-16.926 -10.19,0 -15.38,7.656 -15.38,16.926 0,9.375 5.37,17.031 15.23,17.031" />
        <path
           inkscape:connector-curvature="0"
           id="path3398"
           style="fill:#ffffff;fill-opacity:1;fill-rule:nonzero;stroke:none"
           d="m 1434.05,247.207 h 6.9 c 5.88,0 9.72,0.988 9.72,6.32 0,5.594 -3.21,6.493 -10.09,6.493 h -6.53 z m 0,-16.844 h -3.12 v 32.254 h 11.83 c 8.61,0 11.03,-4.168 11.03,-9.004 0,-7.215 -5.83,-9.004 -11.93,-9.004 h -7.81 v -14.246" />
        <path
           inkscape:connector-curvature="0"
           id="path3400"
           style="fill:#ffffff;fill-opacity:1;fill-rule:nonzero;stroke:none"
           d="m 1498.1,230.363 h -3.12 v 29.657 h -10.48 v 2.597 h 24.06 v -2.597 h -10.46 v -29.657" />
        <path
           inkscape:connector-curvature="0"
           id="path3402"
           style="fill:#ffffff;fill-opacity:1;fill-rule:nonzero;stroke:none"
           d="m 1566.97,246.438 c 0,8.964 -4.72,14.433 -12.35,14.433 -8.5,0 -12.21,-6.945 -12.21,-14.433 0,-7.618 3.66,-14.336 12.3,-14.336 8.6,0 12.26,6.816 12.26,14.336 z m -12.45,17.031 c 10.33,0 15.58,-7.571 15.58,-17.031 0,-9.27 -5.25,-16.926 -15.42,-16.926 -10.21,0 -15.39,7.656 -15.39,16.926 0,9.375 5.37,17.031 15.23,17.031" />
        <path
           inkscape:connector-curvature="0"
           id="path3404"
           style="fill:#ffffff;fill-opacity:1;fill-rule:nonzero;stroke:none"
           d="m 1606.92,232.961 h 7.93 c 6.9,0 10.12,0.898 10.12,6.492 0,5.332 -3.87,6.32 -9.75,6.32 h -8.3 z m 0,15.41 h 7.89 c 6.53,0 8.64,2.234 8.64,6.141 0,4.023 -2.48,5.508 -9.32,5.508 h -7.21 z m -3.12,14.246 h 11.93 c 7.76,0 10.84,-3.269 10.84,-8.105 0,-4.481 -2.61,-6.504 -5.27,-6.953 v -0.086 c 4.53,-0.664 6.79,-3.762 6.79,-8.02 0,-6.719 -4.51,-9.09 -10.8,-9.09 h -13.49 v 32.254" />
        <path
           inkscape:connector-curvature="0"
           id="path3406"
           style="fill:#ffffff;fill-opacity:1;fill-rule:nonzero;stroke:none"
           d="m 1693.79,230.363 h -3.13 v 32.254 h 3.13 z m -28.88,2.598 h 6.53 c 6.87,0 10.09,0.898 10.09,6.492 0,5.332 -4.13,6.719 -9.68,6.719 h -6.94 z m 0,15.809 h 7.85 c 6.1,0 11.9,-2.196 11.9,-9.403 0,-4.844 -2.44,-9.004 -11.02,-9.004 h -11.85 v 32.254 h 3.12 V 248.77" />
        <path
           inkscape:connector-curvature="0"
           id="path3408"
           style="fill:#ffffff;fill-opacity:1;fill-rule:nonzero;stroke:none"
           d="m 1750.77,262.617 v -2.597 h -18.87 v -11.25 h 17.04 v -2.598 h -17.04 v -13.211 h 19.34 v -2.598 h -22.46 v 32.254 h 21.99" />
        <path
           inkscape:connector-curvature="0"
           id="path3410"
           style="fill:#ffffff;fill-opacity:1;fill-rule:nonzero;stroke:none"
           d="m 1824.41,262.617 9.84,-23.34 10.1,23.34 h 3.44 l -12.54,-28.094 c -1.7,-3.761 -3.35,-5.011 -6.8,-5.011 -0.69,0 -1.41,0.09 -1.92,0.215 v 2.558 c 0.36,-0.097 1.1,-0.183 1.74,-0.183 2.02,0 2.85,0.683 3.63,2.285 l 0.65,1.297 -11.38,26.933 h 3.24" />
        <path
           inkscape:connector-curvature="0"
           id="path3412"
           style="fill:#ffffff;fill-opacity:1;fill-rule:nonzero;stroke:none"
           d="m 1902.57,253.254 c -1.29,5.516 -4.79,7.617 -10.43,7.617 -7.99,0 -11.43,-6.68 -11.43,-14.297 0,-7.207 2.7,-14.472 11.7,-14.472 5.7,0 9.23,3.769 10.48,8.875 h 3.25 c -1.47,-6.231 -5.47,-11.465 -14.31,-11.465 -10.21,0 -14.24,7.832 -14.24,16.972 0,12.325 6.61,16.985 15.37,16.985 6.81,0 11.76,-3.535 12.81,-10.215 h -3.2" />
        <path
           inkscape:connector-curvature="0"
           id="path3414"
           style="fill:#ffffff;fill-opacity:1;fill-rule:nonzero;stroke:none"
           d="m 1964.23,262.617 v -32.254 h -3.13 v 29.657 h -15.75 v -13.985 c 0,-11.687 -1.97,-16.308 -6.1,-16.308 -0.88,0 -1.43,0.089 -2.44,0.363 v 2.461 c 0.64,-0.129 1.56,-0.227 2.16,-0.227 2.16,0 3.26,4.754 3.26,15.996 v 14.297 h 22" />
        <path
           inkscape:connector-curvature="0"
           id="path3416"
           style="fill:#ffffff;fill-opacity:1;fill-rule:nonzero;stroke:none"
           d="m 1998.94,262.617 9.82,-23.34 10.1,23.34 h 3.44 l -12.52,-28.094 c -1.7,-3.761 -3.36,-5.011 -6.8,-5.011 -0.69,0 -1.43,0.09 -1.94,0.215 v 2.558 c 0.38,-0.097 1.12,-0.183 1.76,-0.183 2.01,0 2.84,0.683 3.62,2.285 l 0.64,1.297 -11.39,26.933 h 3.27" />
        <path
           inkscape:connector-curvature="0"
           id="path3418"
           style="fill:#ffffff;fill-opacity:1;fill-rule:nonzero;stroke:none"
           d="m 2074.7,262.617 v -2.597 h -18.19 v -29.657 h -3.12 v 32.254 h 21.31" />
        <path
           inkscape:connector-curvature="0"
           id="path3420"
           style="fill:#ffffff;fill-opacity:1;fill-rule:nonzero;stroke:none"
           d="m 2109.91,234.434 h 0.1 l 19.09,28.183 h 3.55 v -32.254 h -3.13 v 28.133 h -0.1 l -19.01,-28.133 h -3.62 v 32.254 h 3.12 v -28.183" />
      </g>
    </g>
  </g>
</svg>
