<?xml version="1.0" encoding="UTF-8" standalone="no"?>
<!-- Created with Inkscape (http://www.inkscape.org/) -->

<svg
   xmlns:dc="http://purl.org/dc/elements/1.1/"
   xmlns:cc="http://creativecommons.org/ns#"
   xmlns:rdf="http://www.w3.org/1999/02/22-rdf-syntax-ns#"
   xmlns:svg="http://www.w3.org/2000/svg"
   xmlns="http://www.w3.org/2000/svg"
   xmlns:sodipodi="http://sodipodi.sourceforge.net/DTD/sodipodi-0.dtd"
   xmlns:inkscape="http://www.inkscape.org/namespaces/inkscape"
   width="144"
   height="144"
   viewBox="0 0 38.100001 38.100001"
   version="1.1"
   id="svg4016"
   inkscape:export-filename="C:\Users\dkonchekov\Documents\icons\drawable-xxhdpi-icon.png"
   inkscape:export-xdpi="96"
   inkscape:export-ydpi="96"
   inkscape:version="0.92.1 r15371"
   sodipodi:docname="drawable-xxhdpi-icon.svg">
  <defs
     id="defs4010" />
  <sodipodi:namedview
     id="base"
     pagecolor="#ffffff"
     bordercolor="#666666"
     borderopacity="1.0"
     inkscape:pageopacity="0.0"
     inkscape:pageshadow="2"
     inkscape:zoom="1.979899"
     inkscape:cx="-13.08993"
     inkscape:cy="58.826737"
     inkscape:document-units="mm"
     inkscape:current-layer="layer1"
     showgrid="false"
     units="px"
     inkscape:window-width="1600"
     inkscape:window-height="837"
     inkscape:window-x="-8"
     inkscape:window-y="-8"
     inkscape:window-maximized="1" />
  <metadata
     id="metadata4013">
    <rdf:RDF>
      <cc:Work
         rdf:about="">
        <dc:format>image/svg+xml</dc:format>
        <dc:type
           rdf:resource="http://purl.org/dc/dcmitype/StillImage" />
        <dc:title></dc:title>
      </cc:Work>
    </rdf:RDF>
  </metadata>
  <g
     inkscape:label="Layer 1"
     inkscape:groupmode="layer"
     id="layer1"
     transform="translate(0,-258.9)">
    <g
       id="g4052"
       transform="matrix(0.87195382,0,0,0.87195382,-126.62338,187.72384)">
      <path
         d="m 165.41448,119.51052 c 0,-0.25292 -0.0326,-0.50102 -0.0974,-0.73512 -0.075,-0.27954 -0.19164,-0.55603 -0.31565,-0.81828 -0.65004,-1.39329 -1.94618,-3.0818 -3.89823,-5.04672 -0.1335,-0.13671 -0.29056,-0.28276 -0.44449,-0.42727 -1.33828,4.0462 -1.0182,7.23006 1.46197,8.82745 0.73545,0.47279 2.04035,0.54975 2.66587,-0.0314 0.0126,-0.0125 0.0204,-0.0204 0.0204,-0.0204 0.37974,-0.47907 0.60749,-1.0885 0.60749,-1.74819"
         style="fill:#a6daff;fill-opacity:1;fill-rule:nonzero;stroke:none;stroke-width:0.08042064"
         id="path3350"
         inkscape:connector-curvature="0" />
      <path
         d="m 154.88911,107.8558 c 0.54662,-3.42101 1.97633,-7.56452 4.70742,-12.545296 -6.17912,-5.733107 -12.12904,-10.553601 -12.12904,-10.553601 0,0 -2.02274,8.698619 -1.90806,16.619727 v 10e-4 c 0,0.002 0,0.002 0,0.002 3.22937,2.15502 6.44933,4.36659 9.19932,6.38024 0.044,0.0314 0.0864,0.0643 0.13036,0.0958"
         style="fill:#5397db;fill-opacity:1;fill-rule:nonzero;stroke:none;stroke-width:0.08042064"
         id="path3352"
         inkscape:connector-curvature="0" />
      <path
         d="m 163.71688,121.96713 c -0.0236,0.008 -0.0471,0.0157 -0.0725,0.022 -0.0469,0.011 -0.0939,0.022 -0.14299,0.0314 -0.0295,0.005 -0.0581,0.0125 -0.088,0.0157 -0.0515,0.009 -0.10486,0.0125 -0.16019,0.0173 -0.0267,0.003 -0.0546,0.006 -0.0829,0.009 -0.0832,0.005 -0.16961,0.006 -0.25952,0.006 -2.9278,0 -9.71015,-3.63147 -8.02164,-14.21338 -0.044,-0.0314 -0.0864,-0.0644 -0.13036,-0.0958 -2.74998,-2.01365 -5.96995,-4.22522 -9.19932,-6.38025 0.0471,3.29065 0.46178,6.4478 1.5452,8.79126 2.77548,5.99544 7.33718,9.99452 12.95094,11.62328 0.79319,0.21834 1.63512,0.41312 2.43932,0.40057 0.47714,-0.008 0.94084,-0.088 1.37278,-0.27648 -0.0491,0.0173 -0.0993,0.0331 -0.15078,0.0487"
         style="fill:#1a75cf;fill-opacity:1;fill-rule:nonzero;stroke:none;stroke-width:0.08042064"
         id="path3354"
         inkscape:connector-curvature="0" />
      <path
         d="m 160.65527,112.47999 c 0.002,0.002 0.002,0.002 0.004,0.003 0,-0.002 0,-0.002 0,-0.003 1.02407,-2.78014 3.90756,-7.0886 6.40687,-9.77143 -2.24921,-2.43457 -4.87703,-4.994846 -7.46907,-7.398056 -2.73108,4.980776 -4.1608,9.124286 -4.70742,12.545296 2.402,1.76234 4.42627,3.36134 5.76616,4.62419"
         style="fill:#75d9e6;fill-opacity:1;fill-rule:nonzero;stroke:none;stroke-width:0.08042064"
         id="path3356"
         inkscape:connector-curvature="0" />
      <path
         d="m 162.12069,121.31058 c -2.48017,-1.59739 -2.80024,-4.78125 -1.46196,-8.82745 -0.002,-0.002 -0.002,-0.002 -0.004,-0.003 -1.33985,-1.2629 -3.36412,-2.8619 -5.76612,-4.62424 -1.68851,10.58191 5.09384,14.21339 8.02163,14.21339 0.0899,0 0.17629,-0.002 0.25952,-0.006 0.0283,-0.003 0.0562,-0.006 0.0829,-0.009 0.0553,-0.005 0.10873,-0.008 0.1602,-0.0173 0.0299,-0.003 0.0585,-0.0109 0.088,-0.0157 0.0491,-0.009 0.0961,-0.0204 0.14299,-0.0314 0.0254,-0.006 0.049,-0.0141 0.0725,-0.022 0.0515,-0.0157 0.10173,-0.0315 0.15079,-0.0487 0.001,-0.002 0.004,-0.002 0.006,-0.005 0.009,-0.002 0.0173,-0.006 0.0264,-0.009 0.22654,-0.10214 0.43073,-0.21054 0.62864,-0.37541 0.0907,-0.0738 0.2136,-0.20105 0.25759,-0.24978 -0.62551,0.5812 -1.93042,0.50423 -2.66586,0.0314"
         style="fill:#00b0c7;fill-opacity:1;fill-rule:nonzero;stroke:none;stroke-width:0.08042064"
         id="path3358"
         inkscape:connector-curvature="0" />
      <path
         d="m 168.71647,119.51052 c 0,-0.25292 0.033,-0.50102 0.0974,-0.73512 0.0738,-0.27954 0.19164,-0.55603 0.31573,-0.81828 0.64868,-1.39329 1.9461,-3.0818 3.89815,-5.04672 0.1335,-0.13671 0.29056,-0.28276 0.44457,-0.42727 1.3382,4.0462 1.01812,7.23006 -1.46205,8.82745 -0.73545,0.47279 -2.04228,0.54975 -2.66707,-0.0314 -0.0113,-0.0125 -0.0191,-0.0204 -0.0191,-0.0204 -0.37983,-0.47907 -0.60758,-1.0885 -0.60758,-1.74819"
         style="fill:#a6daff;fill-opacity:1;fill-rule:nonzero;stroke:none;stroke-width:0.08042064"
         id="path3360"
         inkscape:connector-curvature="0" />
      <path
         d="m 179.24184,107.8558 c -0.54661,-3.42101 -1.97754,-7.56452 -4.70742,-12.545296 6.1776,-5.733107 12.12905,-10.553601 12.12905,-10.553601 0,0 2.02273,8.698619 1.90805,16.619727 v 10e-4 c 0,0.002 0,0.002 0,0.002 -3.22937,2.15504 -6.44933,4.3666 -9.19931,6.38026 -0.044,0.0314 -0.0864,0.0643 -0.13037,0.0958"
         style="fill:#5397db;fill-opacity:1;fill-rule:nonzero;stroke:none;stroke-width:0.08042064"
         id="path3362"
         inkscape:connector-curvature="0" />
      <path
         d="m 170.41407,121.96713 c 0.0236,0.008 0.0471,0.0157 0.0726,0.022 0.047,0.011 0.0939,0.022 0.14291,0.0314 0.0298,0.005 0.0581,0.0125 0.088,0.0157 0.0515,0.009 0.1068,0.0125 0.15827,0.0173 0.0298,0.003 0.0566,0.006 0.0852,0.009 0.0829,0.005 0.16928,0.006 0.25919,0.006 2.9278,0 9.71015,-3.63147 8.02164,-14.21338 0.044,-0.0314 0.0864,-0.0644 0.13036,-0.0958 2.74999,-2.01365 5.96995,-4.22522 9.19932,-6.38025 -0.047,3.29065 -0.46178,6.4478 -1.5452,8.79126 -2.77548,5.99544 -7.33718,9.99452 -12.95215,11.62328 -0.79198,0.21834 -1.63383,0.41312 -2.43803,0.40057 -0.47722,-0.008 -0.94092,-0.088 -1.37286,-0.27648 0.0491,0.0173 0.0993,0.0331 0.15079,0.0487"
         style="fill:#1a75cf;fill-opacity:1;fill-rule:nonzero;stroke:none;stroke-width:0.08042064"
         id="path3364"
         inkscape:connector-curvature="0" />
      <path
         d="m 173.47577,112.47999 c -0.002,0.002 -0.002,0.002 -0.004,0.003 0,-0.002 0,-0.002 0,-0.003 -1.02416,-2.78014 -3.90957,-7.0886 -6.40672,-9.77143 2.24897,-2.43457 4.87679,-4.994846 7.46883,-7.398056 2.72988,4.980776 4.1608,9.124286 4.70742,12.545296 -2.40192,1.76234 -4.42627,3.36134 -5.76608,4.62419"
         style="fill:#75d9e6;fill-opacity:1;fill-rule:nonzero;stroke:none;stroke-width:0.08042064"
         id="path3366"
         inkscape:connector-curvature="0" />
      <path
         d="m 172.01026,121.31058 c 2.48017,-1.59739 2.80025,-4.78125 1.46205,-8.82745 0.002,-0.002 0.002,-0.002 0.004,-0.003 1.33981,-1.26285 3.36415,-2.86185 5.76608,-4.62419 1.68851,10.58191 -5.09385,14.21338 -8.02164,14.21338 -0.0899,0 -0.17628,-0.002 -0.2592,-0.006 -0.0285,-0.003 -0.0553,-0.006 -0.0852,-0.009 -0.0515,-0.005 -0.1068,-0.008 -0.15826,-0.0173 -0.0298,-0.003 -0.0581,-0.0109 -0.088,-0.0157 -0.049,-0.009 -0.0959,-0.0204 -0.14291,-0.0314 -0.0255,-0.006 -0.0491,-0.0141 -0.0726,-0.022 -0.0515,-0.0157 -0.10173,-0.0315 -0.15079,-0.0487 -0.003,-0.002 -0.004,-0.002 -0.006,-0.005 -0.009,-0.002 -0.0176,-0.006 -0.0267,-0.009 -0.22647,-0.10213 -0.43073,-0.21053 -0.62857,-0.3754 -0.0908,-0.0738 -0.21368,-0.20105 -0.25887,-0.24978 0.62479,0.5812 1.93162,0.50423 2.66707,0.0314"
         style="fill:#00b0c7;fill-opacity:1;fill-rule:nonzero;stroke:none;stroke-width:0.08042064"
         id="path3368"
         inkscape:connector-curvature="0" />
    </g>
  </g>
</svg>
